<?xml version="1.0" encoding="UTF-8"?>
<svg width="105px" height="47px" viewBox="0 0 105 47" version="1.1" xmlns="http://www.w3.org/2000/svg" xmlns:xlink="http://www.w3.org/1999/xlink">
    <!-- Generator: Sketch 57 (83077) - https://sketch.com -->
    <title>编组</title>
    <desc>Created with Sketch.</desc>
    <defs>
        <polygon id="path-1" points="0 47 104.279 47 104.279 0.56 0 0.56"></polygon>
    </defs>
    <g id="普云链后台-流程管理" stroke="none" stroke-width="1" fill="none" fill-rule="evenodd">
        <g id="报表管理-缺省状态" transform="translate(-1149.000000, -574.000000)">
            <g id="设计表单" transform="translate(220.000000, 108.000000)">
                <g id="编组" transform="translate(929.000000, 465.000000)">
                    <polygon id="Fill-1" fill="#E9E9EB" points="98.1351 5.3774 98.1351 41.3084 4.3811 41.3084 4.3811 47.4364 104.2781 47.4364 104.2781 5.3774"></polygon>
                    <path d="M99.8973,5.3774 L99.8973,7.1314 L102.5173,7.1314 L102.5173,9.7594 L104.2703,9.7594 L104.2703,5.3774 L99.8973,5.3774 Z M102.5253,15.0114 L102.5173,19.1014 L104.2783,19.1014 L104.2783,15.0114 L102.5253,15.0114 Z M102.5253,24.3594 L102.5173,28.4494 L104.2783,28.4494 L104.2783,24.3594 L102.5253,24.3594 Z M102.5253,33.7104 L102.5173,37.8004 L104.2783,37.8004 L104.2783,33.7104 L102.5253,33.7104 Z M102.5173,43.0584 L102.5253,45.6864 L99.8973,45.6864 L99.8973,47.4394 L104.2783,47.4394 L104.2783,43.0584 L102.5173,43.0584 Z M4.3813,43.0584 L4.3813,47.4364 L9.6403,47.4364 L9.6403,45.6824 L6.1353,45.6824 L6.1333,43.0584 L4.3813,43.0584 Z M75.6113,47.4384 L82.4973,47.4384 L82.4973,45.6844 L75.6113,45.6844 L75.6113,47.4384 Z M87.7533,47.4394 L94.6383,47.4394 L94.6383,45.6864 L87.7533,45.6864 L87.7533,47.4394 Z M63.4693,47.4394 L70.3543,47.4394 L70.3543,45.6864 L63.4693,45.6864 L63.4693,47.4394 Z M51.3253,47.4394 L58.2103,47.4394 L58.2103,45.6864 L51.3253,45.6864 L51.3253,47.4394 Z M39.1813,47.4394 L46.0663,47.4394 L46.0663,45.6864 L39.1813,45.6864 L39.1813,47.4394 Z M27.0373,47.4394 L33.9223,47.4394 L33.9223,45.6864 L27.0373,45.6864 L27.0373,47.4394 Z M14.8943,47.4394 L21.7793,47.4394 L21.7793,45.6864 L14.8943,45.6864 L14.8943,47.4394 Z" id="Fill-2" fill="#B4B6BC"></path>
                    <g transform="translate(0.000000, 0.439800)">
                        <path d="M50.2922,22.3773 L49.9422,22.3773 L49.9422,16.7413 C49.9172,16.1263 49.4102,15.6403 48.7942,15.6403 C48.1782,15.6403 47.6712,16.1263 47.6462,16.7413 L47.6462,28.1543 L44.1712,24.6443 C43.7162,24.1853 43.0462,24.0133 42.4272,24.1953 L42.1352,24.2823 L47.4012,30.7553 L47.4012,30.9093 L46.2602,32.1113 L40.7312,25.1513 C40.4262,24.7683 40.3182,24.2643 40.4382,23.7893 C40.5592,23.3143 40.8952,22.9243 41.3452,22.7323 L41.7222,22.5723 C42.6522,22.1763 43.7282,22.3493 44.4872,23.0173 L45.8472,24.2013 L45.8472,16.6063 C45.8472,14.9703 47.1732,13.6443 48.8092,13.6443 C50.4442,13.6443 51.7712,14.9703 51.7712,16.6063 L51.7712,20.4303 L56.0462,20.4303 C56.7442,20.4333 57.4132,20.7133 57.9042,21.2093 C58.3962,21.7063 58.6692,22.3773 58.6642675,23.0763 L58.6642675,31.2013 L56.6892,31.2013 L56.6892,23.2543 C56.6892,23.0223 56.5972,22.7983 56.4332,22.6343 C56.2682,22.4693 56.0452,22.3773 55.8132,22.3773 L50.2842,22.3773 L50.2922,22.3773 Z M39.4322,11.0743 L43.8112,11.0743 L43.8112,12.8243 L41.1812,12.8243 L41.1812,15.4523 L39.4322,15.4523 L39.4322,11.0743 Z M60.4612,12.8243 L60.4612,15.4523 L58.7112,15.4523 L58.7112,12.8243 L56.0812,12.8243 L56.0812,11.0743 L60.4612,11.0743 L60.4612,12.8243 Z" id="Fill-3" fill="#B4B6BC"></path>
                        <mask id="mask-2" fill="white">
                            <use xlink:href="#path-1"></use>
                        </mask>
                        <g id="Clip-6"></g>
                        <path d="M1.754,40.868 L98.136,40.868 L98.136,2.313 L1.754,2.313 L1.754,40.868 Z M0,42.619 L99.897,42.619 L99.897,0.56 L0,0.56 L0,42.619 Z" id="Fill-5" fill="#B4B6BC" mask="url(#mask-2)"></path>
                    </g>
                </g>
            </g>
        </g>
    </g>
</svg>